<?xml version="1.0" encoding="iso-8859-1"?>
<!-- Generator: Adobe Illustrator 16.0.0, SVG Export Plug-In . SVG Version: 6.00 Build 0)  -->
<!DOCTYPE svg PUBLIC "-//W3C//DTD SVG 1.1//EN" "http://www.w3.org/Graphics/SVG/1.1/DTD/svg11.dtd">
<svg version="1.1" id="Capa_1" xmlns="http://www.w3.org/2000/svg" xmlns:xlink="http://www.w3.org/1999/xlink" x="0px" y="0px"
	 width="460.483px" height="460.483px" viewBox="0 0 460.483 460.483" style="enable-background:new 0 0 460.483 460.483;"
	 xml:space="preserve">
<g>
	<g>
		<path d="M274.287,122.709v-7.218c0-6.82-4.52-10.397-8.998-10.397c-2.301,0-4.581,0.846-6.785,2.496l-47.4,35.581
			c-3.161,2.379-4.984,5.83-4.984,9.488s1.833,7.112,5.015,9.473l47.567,35.597c2.204,1.65,4.484,2.496,6.784,2.496
			c2.315,0,4.474-0.891,6.089-2.526c1.33-1.343,2.884-3.816,2.839-7.947l-0.062-7.916c0-0.539,0.183-1.003,0.538-1.376
			c0.371-0.371,0.828-0.551,1.356-0.551h84.229c7.627,0,13.827-6.203,13.827-13.828v-27.57c0-7.622-6.2-13.825-13.827-13.825
			h-84.214C275.181,124.685,274.287,123.809,274.287,122.709z M362.466,166.09c0,1.082-0.873,1.973-1.97,1.973h-84.234
			c-3.701,0-7.17,1.439-9.779,4.077c-2.59,2.623-3.997,6.114-3.967,9.811c0,0,0.011,0.863,0.016,1.93
			c0.01,1.066-2.809-0.19-6.312-2.806l-31.677-23.691c-3.494-2.615-3.501-6.858-0.01-9.473l31.585-23.706
			c3.493-2.623,6.321-4.015,6.321-3.113v1.628c0,7.622,6.2,13.824,13.822,13.824h84.234c1.097,0,1.97,0.892,1.97,1.976V166.09
			L362.466,166.09z"/>
		<path d="M287.403,394.612h-156.46c-5.23,0-9.488,4.261-9.488,9.49v1.818c0,5.078,3.869,9.795,8.823,10.72
			c14.244,2.666,43.048,7.124,75.896,7.124l3.146-0.015l2.836,0.015c32.862,0,61.659-4.458,75.908-7.124
			c4.94-0.925,8.81-5.652,8.81-10.72v-1.818C296.889,398.873,292.634,394.612,287.403,394.612z M290.963,405.926
			c0,2.204-1.863,4.504-3.981,4.905c-14.035,2.625-42.432,7.022-74.818,7.022l-3.192-0.015l-2.791,0.015
			c-32.372,0-60.758-4.397-74.803-7.022c-2.133-0.401-3.999-2.701-3.999-4.905v-1.818c0-1.975,1.604-3.56,3.565-3.56h156.46
			c1.955,0,3.56,1.585,3.56,3.56V405.926z"/>
		<path d="M227.409,32.573c1.635,0,2.963-1.328,2.963-2.963c0-1.635-1.328-2.963-2.963-2.963h-38.387
			c-1.635,0-2.963,1.328-2.963,2.963c0,1.636,1.328,2.963,2.963,2.963H227.409z"/>
		<path d="M150.369,32.326c1.201,0,2.171-0.972,2.171-2.173v-3.814c0-1.201-0.97-2.173-2.171-2.173h-8.161
			c-1.201,0-2.188,0.973-2.188,2.173v3.806c0,1.201,0.988,2.173,2.188,2.173h8.161V32.326z"/>
		<circle cx="163.427" cy="28.25" r="4.084"/>
		<path d="M137.839,460.483h148.092c24.15,0,51.673-28.686,51.673-53.831V203.33c0-4.359-2.65-7.899-5.92-7.899
			c-3.271,0-5.927,3.54-5.927,7.899v203.316c0,19.226-21.586,41.98-39.826,41.98H137.839c-18.225,0-39.809-22.76-39.809-41.98
			V53.829c0-19.228,21.584-41.979,39.809-41.979h148.092c18.24,0,39.826,22.759,39.826,41.979v54.796
			c0,4.359,2.656,7.899,5.927,7.899c3.27,0,5.92-3.54,5.92-7.899V53.829C337.604,28.678,310.081,0,285.931,0H137.839
			c-24.136,0-51.658,28.686-51.658,53.829v352.817C86.181,431.798,113.703,460.483,137.839,460.483z"/>
		<path d="M302.332,108.625V86.331c0-10.341-8.419-18.763-18.763-18.763H130.775c-10.341,0-18.761,8.422-18.761,18.763v279.109
			c0,10.349,8.419,18.763,18.761,18.763h152.804c10.339,0,18.764-8.414,18.764-18.763V203.33c0-4.359-1.331-7.899-2.966-7.899
			s-2.96,3.54-2.96,7.899v162.109c0,7.078-5.754,12.837-12.838,12.837H130.775c-7.071,0-12.837-5.759-12.837-12.837V86.331
			c0-7.079,5.766-12.837,12.837-12.837h152.804c7.084,0,12.838,5.758,12.838,12.837v22.295c0,4.359,1.325,7.899,2.96,7.899
			S302.332,112.993,302.332,108.625z"/>
	</g>
</g>
<g>
</g>
<g>
</g>
<g>
</g>
<g>
</g>
<g>
</g>
<g>
</g>
<g>
</g>
<g>
</g>
<g>
</g>
<g>
</g>
<g>
</g>
<g>
</g>
<g>
</g>
<g>
</g>
<g>
</g>
</svg>
